# xmcd
# Copyright (C) 1995-1998 Ti Kan
#
# Track frame offsets:
#       150
#       15149
#       30968
#       42721
#       57638
#       66568
#       79585
#       91850
#       107670
#       119633
#       131685
#       146081
#
# Disc length: 2156 seconds
#
# Revision: 0
# Processed by: cddbd v1.5.2PL0 Copyright (c) Steve Scherf et al.
# Submitted via: CD-Transfer v1.0
#
DISCID=a5086a0c
DTITLE=Da Zillertaler Und Die Geigerin - 
DYEAR=06
DGENRE=
TTITLE0=Ja Wenn A Zillertaler Geign Klingt 2006
TTITLE1=Ein Morgen Ohne Sorgen 2006
TTITLE2=Mir San Do 2006
TTITLE3=Da Mug Boarische 2006
TTITLE4=Ohne Geign Geht Nix 2006
TTITLE5=Treschtrer 2006
TTITLE6=Da Löffelbua Boarische 2006
TTITLE7=Wie Das Amen Im Gebet San Mir Tiroler 2006
TTITLE8=Bei Der Geigerin Vom Zillertal 2006
TTITLE9=Riedltischl Geign Boarischer 2006
TTITLE10=Aber Heit Heit Heit 2006
TTITLE11=Einfach Träumen 2006
EXTD=
EXTT0=
EXTT1=
EXTT2=
EXTT3=
EXTT4=
EXTT5=
EXTT6=
EXTT7=
EXTT8=
EXTT9=
EXTT10=
EXTT11=
PLAYORDER=
